<svg xmlns="http://www.w3.org/2000/svg" viewBox="0 0 600.002 51.999">
  <path d="M166.686 4.887q-.61 0-.61-.606V.77q.004-.606.603-.606h2.93q.6 0 .6.607v3.51q0 .61-.62.61h-2.93zm-8.41 32.372h4.754q1.83 0 2.744-1.26.912-1.28.912-3.82V11.92h-6.44V9.015h10.182V32.18q0 1.93-.45 3.475-.443 1.544-1.358 2.643-.912 1.098-2.23 1.604-1.306.526-2.95.526h-5.16v-3.17zm32.186-4.9q-.9 0-1.85-.1-.933-.09-1.81-.25-.79-.17-1.87-.45-1.055-.29-2.13-.64v-3.85q1.298.65 2.214 1.01.915.34 1.787.59.932.26 1.808.4.88.14 1.81.14 2.47 0 3.85-1.02.71-.53 1.03-1.24.34-.72.34-1.44 0-1.42-1.2-2.3-1.19-.9-3.78-1.42l-.16-.05-1.4-.28q-1.53-.31-2.73-.81-1.17-.51-1.99-1.32-1.48-1.49-1.48-4.09 0-1.65.55-2.91.57-1.26 1.67-2.13 1.16-.937 2.76-1.347 1.61-.425 3.6-.425.88 0 1.75.08t1.73.24q.77.164 1.607.423.85.25 1.7.59v3.666q-1.62-.94-3.23-1.41-.81-.224-1.642-.347-.81-.12-1.74-.12-1.18 0-2.13.2-.94.204-1.564.61-1.263.833-1.263 2.54 0 .71.22 1.3.24.59.71.954.464.37 1.543.74 1.1.343 3.11.73l1.5.28q1.466.28 2.498.81 1.04.526 1.73 1.3 1.424 1.563 1.424 4.143 0 1.75-.63 3.046-.61 1.284-1.762 2.2-1.243.975-2.91 1.44-1.645.47-3.636.47zm25.56 0q-2.336 0-4.16-.75-1.815-.77-3.074-2.3-1.285-1.59-1.897-3.82-.6-2.26-.6-5.1 0-5.77 2.5-8.86 2.51-3.07 7.24-3.07 2.44 0 4.23.79 1.81.77 3.03 2.27 2.5 3.09 2.5 8.84 0 2.9-.63 5.16-.6 2.25-1.86 3.78-1.22 1.5-3.05 2.27-1.81.77-4.2.77zm0-3.17q2.864 0 4.328-2.23 1.465-2.22 1.465-6.55t-1.465-6.56q-1.464-2.22-4.327-2.22-2.847 0-4.308 2.21-1.465 2.23-1.465 6.56t1.465 6.55q1.465 2.23 4.308 2.23zm16.48-20.18h3.372l.366 3.41q1.015-1.97 2.703-2.97 1.685-1 4.022-1 1.83 0 3.11.59 1.274.59 2.11 1.68 1.704 2.29 1.704 6.92v14.11h-3.77v-14.1q0-3.07-1.07-4.51-1.08-1.45-3.4-1.45-1.34 0-2.33.46-.98.46-1.68 1.38-1.42 1.85-1.42 5.34v12.86h-3.74V9.01zm37.75 22.92q-1.623 0-2.928-.51-1.275-.51-2.25-1.65-1.852-2.16-1.852-6.09V3.08h-5.992V.15h9.73v23.537q0 2.536.933 3.795.493.672 1.165.975.69.31 1.565.31h4.36v3.17h-4.726zm18.98-27.05q-.61 0-.61-.61V.76q0-.61.61-.61h2.93q.606 0 .606.61v3.52q0 .61-.61.61h-2.93zm6.825 27.05q-1.625 0-2.923-.51-1.282-.51-2.257-1.65-1.848-2.16-1.848-6.09V11.93h-4.98V9.01h8.72v14.67q0 2.54.93 3.8.48.67 1.15.97.69.31 1.56.31h4.37v3.17h-4.74zM307.6 9.01h3.374l.367 3.418q1.02-1.97 2.7-2.96 1.69-1 4.03-1 1.83 0 3.11.59 1.28.59 2.11 1.684Q325 13.04 325 17.668V31.77h-3.762v-14.1q0-3.062-1.074-4.507-1.075-1.444-3.396-1.444-1.338 0-2.33.46-.98.46-1.665 1.38-1.43 1.84-1.43 5.34v12.86h-3.74V9.01zm37.467 22.84q-4.184 0-5.932-1.685-1.73-1.664-1.73-5.81V11.92h-6.07V9.015h6.072V3.063l3.74-1.625v7.577h8.495v2.907h-8.5v12.44q0 2.497.956 3.51.932.998 3.33.998h4.21v2.986h-4.577zm12.824-13.956h16.68v3.33h-16.68v-3.33z" style="-inkscape-font-specification:Hack" font-family="Hack"/>
  <path fill="#999" d="M393.203 32.362q-2.537 0-4.628-.792-2.077-.813-3.54-2.377-1.48-1.58-2.23-3.775-.732-2.214-.732-5 0-2.904.773-5.094.792-2.197 2.214-3.702 1.504-1.585 3.555-2.357 2.074-.792 4.614-.792.93 0 1.73.1.79.1 1.56.326 1.54.42 3.14 1.32v3.92q-.75-.66-1.48-1.14-.74-.49-1.49-.78-1.52-.59-3.38-.59-3.53 0-5.43 2.27-1.88 2.29-1.88 6.48 0 1.95.43 3.62.44 1.66 1.46 2.88 1.91 2.3 5.48 2.3 1.01 0 1.84-.17.85-.16 1.562-.45.91-.35 1.564-.79.667-.47 1.3-1.06v3.88q-.69.4-1.5.74-.81.34-1.58.56-.714.21-1.566.31-.83.12-1.81.12zm27.25-.426q-1.63 0-2.928-.506-1.28-.51-2.254-1.648-1.85-2.154-1.85-6.092V3.08h-5.99V.15h9.74v23.537q0 2.536.93 3.795.5.672 1.17.975.69.31 1.57.31h4.36v3.17h-4.72zm18.977-27.05q-.61 0-.61-.605V.77q0-.61.61-.61h2.93q.6.004.6.603V4.28q0 .61-.61.61h-2.93zm6.825 27.05q-1.625 0-2.923-.506-1.282-.51-2.257-1.648-1.848-2.154-1.848-6.092V11.938h-4.98V9.015h8.715v14.672q0 2.54.932 3.8.49.667 1.166.967.685.31 1.564.31h4.36v3.17h-4.726z"/>
  <path fill="#999" d="M178.997 47.9v4.25H150V47.9h28.997z" letter-spacing="-2.85" font-size="17.5" style="line-height:0%"/>
</svg>
