<svg xmlns="http://www.w3.org/2000/svg" viewBox="0 0 90.413231 15.616556" height="15.617" width="90.413"><g font-family="sans-serif" word-spacing="0"><g style="line-height:125%" font-size="12.5" letter-spacing="0"><path style="-inkscape-font-specification:Hack" d="M5.012 1.42q-.183 0-.183-.182V.182Q4.83 0 5.01 0h.88q.183 0 .183.182v1.056q0 .183-.184.183h-.878zm-2.526 9.724h1.428q.55 0 .824-.378.274-.385.274-1.148V3.533H3.078V2.66h3.058v6.958q0 .58-.135 1.044-.133.464-.408.794-.274.33-.67.482-.392.158-.886.158h-1.55v-.952zM12.154 9.673q-.27 0-.556-.03-.28-.025-.543-.073-.238-.05-.562-.135-.317-.085-.64-.19V8.088q.39.195.665.305.275.103.537.177.28.078.543.12.263.043.543.043.74 0 1.155-.305.214-.158.31-.372.1-.214.1-.433 0-.428-.36-.69-.36-.27-1.136-.427l-.05-.013-.42-.085q-.46-.092-.82-.244-.353-.153-.597-.397-.446-.445-.446-1.227 0-.494.165-.873.17-.378.5-.64.348-.28.83-.403.483-.128 1.08-.128.263 0 .526.024.262.024.518.073.232.05.483.128.255.075.51.178v1.1q-.487-.282-.97-.422-.243-.067-.494-.104-.244-.036-.524-.036-.354 0-.64.06-.282.062-.47.184-.38.25-.38.763 0 .213.067.39.073.177.213.287.14.11.464.22.33.104.934.22l.452.085q.44.085.75.244.312.158.52.39.427.47.427 1.245 0 .525-.19.915-.183.385-.53.66-.373.293-.874.433-.494.14-1.092.14zM19.832 9.673q-.702 0-1.25-.225-.545-.232-.923-.69-.386-.476-.57-1.148-.182-.677-.182-1.532 0-1.733.75-2.66.752-.922 2.174-.922.732 0 1.27.238.543.232.91.683.75.928.75 2.655 0 .873-.19 1.55-.183.678-.56 1.136-.367.45-.917.683-.543.233-1.263.233zm0-.952q.86 0 1.3-.67.44-.665.44-1.966 0-1.3-.44-1.97-.44-.666-1.3-.666-.855 0-1.294.665-.44.67-.44 1.97 0 1.302.44 1.967.44.67 1.294.67zM24.782 2.66h1.013l.11 1.026q.305-.592.812-.89.506-.3 1.208-.3.55 0 .934.177.383.177.634.506.512.69.512 2.08v4.236h-1.13V5.26q0-.92-.322-1.354-.324-.434-1.02-.434-.402 0-.7.14-.294.14-.502.416-.427.555-.427 1.605v3.863h-1.123V2.66zM36.122 9.545q-.488 0-.88-.152-.383-.153-.676-.495-.556-.647-.556-1.83V.877h-1.8v-.88h2.923v7.07q0 .762.28 1.14.148.202.35.293.207.093.47.093h1.31v.952h-1.42zM41.823 1.42q-.183 0-.183-.182V.182q0-.183.183-.183h.88q.182 0 .182.182v1.056q0 .183-.183.183h-.88zm2.05 8.125q-.488 0-.878-.152-.385-.153-.678-.495-.555-.647-.555-1.83v-3.53h-1.496V2.66h2.62v4.407q0 .763.28 1.142.146.2.347.29.208.093.47.093h1.313v.952h-1.422zM47.34 2.66h1.014l.11 1.026q.305-.592.81-.89.508-.3 1.21-.3.55 0 .934.177t.634.506q.513.69.513 2.08v4.236h-1.13V5.26q0-.92-.323-1.354-.323-.434-1.02-.434-.402 0-.7.14-.294.14-.5.416-.43.555-.43 1.605v3.863H47.34V2.66zM58.595 9.52q-1.257 0-1.782-.506-.52-.5-.52-1.745V3.532H54.47V2.66h1.824V.872l1.123-.488V2.66h2.552v.873h-2.553V7.27q0 .75.287 1.054.28.3 1 .3h1.265v.897h-1.375zM62.447 5.328h5.01v1h-5.01v-1z" font-family="Hack"/><path d="M73.054 9.673q-.762 0-1.39-.238-.624-.244-1.063-.714-.445-.475-.67-1.134-.22-.665-.22-1.502 0-.872.232-1.53.238-.66.665-1.112.452-.476 1.068-.708.623-.238 1.386-.238.28 0 .52.03.237.03.47.098.463.128.945.397V4.2q-.225-.197-.445-.343-.22-.147-.446-.232-.457-.177-1.013-.177-1.06 0-1.63.683-.566.69-.566 1.948 0 .586.128 1.087.134.5.44.867.573.69 1.647.69.305 0 .555-.05.256-.048.47-.134.274-.104.47-.238.2-.14.39-.317V9.15q-.207.12-.45.224-.245.104-.477.17-.214.062-.47.093-.25.036-.544.036zM81.24 9.545q-.49 0-.88-.152-.384-.153-.677-.495-.556-.647-.556-1.83V.877h-1.8v-.88h2.924v7.07q0 .762.28 1.14.148.202.35.293.207.093.47.093h1.31v.952h-1.42zM86.94 1.42q-.183 0-.183-.182V.182q0-.183.183-.183h.88Q88 0 88 .18v1.056q0 .183-.183.183h-.88zm2.05 8.125q-.488 0-.878-.152-.385-.153-.678-.495-.555-.647-.555-1.83v-3.53h-1.496V2.66h2.618v4.407q0 .763.28 1.142.147.2.35.29.206.093.47.093h1.31v.952h-1.42z" fill="#999"/></g><path style="line-height:0%" d="M8.71 14.34v1.277H0V14.34h8.71z" font-size="17.5" fill="#999" letter-spacing="-2.85"/></g></svg>
