<svg xmlns="http://www.w3.org/2000/svg" viewBox="0 0 90.413 15.617">
  <path d="M5.012 1.42q-.183 0-.183-.182V.182Q4.83 0 5.01 0h.88q.183 0 .183.182v1.056q0 .183-.184.183h-.88zm-2.526 9.724h1.428q.55 0 .824-.378.274-.385.274-1.148V3.533H3.078V2.66h3.058v6.958q0 .58-.135 1.044-.13.464-.4.794t-.67.482q-.39.158-.88.158H2.49v-.952zm9.668-1.47q-.27 0-.556-.03-.28-.026-.543-.074-.238-.05-.562-.135-.317-.085-.64-.19V8.088q.39.195.665.305.275.103.537.177.28.078.543.12.263.043.543.043.74 0 1.16-.305.22-.158.31-.372.1-.214.1-.433 0-.428-.36-.69-.36-.27-1.13-.427l-.05-.013-.42-.085q-.46-.092-.82-.244-.35-.153-.59-.397-.44-.445-.44-1.227 0-.494.167-.873.17-.378.5-.64.346-.28.83-.403.48-.128 1.08-.128.26 0 .524.024.26.024.517.073.23.05.48.128.254.08.51.18V4q-.49-.283-.97-.423-.244-.067-.495-.104-.242-.036-.522-.036-.35 0-.64.06-.28.062-.47.184-.38.25-.38.77 0 .22.07.39.074.18.214.29.14.11.464.22.33.11.93.22l.45.09q.44.09.75.25.317.16.52.39.43.47.43 1.248 0 .525-.19.915-.18.383-.53.66-.37.29-.872.43-.49.14-1.09.14zm7.678 0q-.702 0-1.25-.226-.545-.232-.923-.69-.39-.476-.57-1.148-.19-.677-.19-1.532 0-1.733.75-2.66.75-.922 2.17-.922.73 0 1.27.238.54.232.91.683.75.928.75 2.655 0 .873-.19 1.55-.19.678-.56 1.136-.37.45-.92.683-.55.24-1.27.24zm0-.953q.86 0 1.3-.67.44-.66.44-1.96 0-1.3-.44-1.97-.44-.66-1.3-.66-.855 0-1.294.67-.44.67-.44 1.97 0 1.3.44 1.97.44.67 1.294.67zm4.95-6.06h1.013l.11 1.03q.305-.59.812-.89.506-.3 1.208-.3.55 0 .934.18.38.18.63.51.51.69.51 2.08V9.5h-1.13V5.26q0-.92-.32-1.354-.33-.434-1.02-.434-.4 0-.7.14-.3.14-.5.416-.43.555-.43 1.605v3.863h-1.12V2.66zm11.34 6.89q-.488 0-.88-.15-.383-.15-.676-.49-.556-.64-.556-1.83V.88h-1.8V0h2.923v7.07q0 .76.28 1.14.148.2.35.292.207.09.47.09h1.31v.954h-1.42zm5.7-8.12q-.182 0-.182-.18V.18q0-.183.183-.183h.88q.182 0 .182.18v1.056q0 .183-.183.183h-.88zm2.05 8.13q-.487 0-.877-.15-.385-.15-.678-.49-.555-.645-.555-1.83V3.54h-1.496v-.88h2.62v4.407q0 .763.28 1.142.146.2.347.29.208.09.47.09h1.313v.95h-1.422zm3.468-6.89h1.014l.11 1.03q.305-.59.81-.89.508-.3 1.21-.3.55 0 .934.18t.634.508q.513.69.513 2.08V9.5h-1.13V5.26q0-.92-.323-1.354-.323-.434-1.02-.434-.402 0-.7.14-.294.14-.5.416-.43.555-.43 1.605v3.863H47.34V2.66zm11.255 6.86q-1.257 0-1.782-.5-.52-.5-.52-1.742V3.53H54.47v-.87h1.824V.872l1.123-.488V2.66h2.552v.873h-2.56V7.27q0 .75.28 1.054.28.3 1 .3h1.26v.897h-1.37zm3.852-4.19h5.01v1h-5.01v-1z" font-family="Hack" style="-inkscape-font-specification:Hack"/>
  <path fill="#999" d="M73.054 9.673q-.762 0-1.39-.238-.624-.244-1.063-.714-.44-.47-.67-1.13-.22-.66-.22-1.5 0-.87.24-1.53t.67-1.11q.45-.47 1.07-.71.63-.24 1.39-.24.28 0 .52.03t.47.1q.468.13.95.4V4.2q-.225-.197-.445-.343-.22-.147-.45-.232-.456-.177-1.012-.177-1.06 0-1.63.683-.566.69-.566 1.95 0 .59.127 1.09.137.5.44.87.576.69 1.65.69.304 0 .554-.05.25-.05.47-.13.27-.1.47-.24.2-.14.39-.31v1.16q-.21.12-.45.23-.25.105-.48.17-.21.06-.47.094-.25.037-.54.037zm8.186-.128q-.49 0-.88-.152-.384-.153-.677-.495-.556-.647-.556-1.83V.878h-1.8v-.88h2.924v7.07q0 .76.28 1.14.15.2.35.292.21.093.47.093h1.31v.952h-1.42zm5.7-8.125q-.183 0-.183-.182V.182q0-.183.183-.183h.88Q88 0 88 .18v1.056q0 .183-.183.183h-.88zm2.05 8.125q-.488 0-.878-.152-.385-.153-.678-.495-.555-.647-.555-1.83v-3.53h-1.5V2.66H88v4.407q0 .763.28 1.142.148.2.35.29.207.09.47.09h1.31v.95h-1.42z"/>
  <path fill="#999" d="M8.71 14.34v1.277H0V14.34h8.71z" letter-spacing="-2.85" font-size="17.5" style="line-height:0%"/>
</svg>
